<svg width="19" height="15" viewBox="0 0 19 15" fill="none" xmlns="http://www.w3.org/2000/svg">
<path opacity="0.3" d="M18.3035 2.00165C17.6285 2.28729 16.9126 2.47481 16.1795 2.558C16.9419 2.12013 17.5284 1.42815 17.8044 0.602416C17.0785 1.0141 16.2843 1.30415 15.4562 1.46002C14.7572 0.746629 13.7798 0.342547 12.7573 0.344244C10.7159 0.344244 9.05901 1.92625 9.05901 3.87776C9.05901 4.15506 9.09167 4.42532 9.15561 4.68338C6.08179 4.53578 3.35755 3.12952 1.53327 0.991158C1.21473 1.51245 1.03304 2.12013 1.03304 2.76792C1.03304 3.99339 1.68564 5.0752 2.6777 5.70904C2.09034 5.69183 1.51585 5.54025 1.00245 5.26699V5.31205C1.00245 7.02375 2.27729 8.45211 3.96818 8.77743C3.4236 8.91836 2.85262 8.93903 2.29845 8.83788C2.76924 10.2421 4.13538 11.2635 5.7529 11.2932C4.48749 12.2395 2.8932 12.8055 1.16022 12.8055C0.865549 12.8052 0.571135 12.7887 0.278442 12.7561C1.91482 13.7584 3.85905 14.3442 5.94724 14.3442C12.7492 14.3442 16.4681 8.95834 16.4681 4.28772C16.4681 4.13495 16.4681 3.98218 16.4566 3.8305C17.1803 3.33011 17.8052 2.71088 18.3023 2.00165H18.3035Z" fill="white"/>
</svg>
